<?xml version="1.0" standalone="no"?>
<!DOCTYPE svg PUBLIC "-//W3C//DTD SVG 20010904//EN"
 "http://www.w3.org/TR/2001/REC-SVG-20010904/DTD/svg10.dtd">
<svg version="1.0" xmlns="http://www.w3.org/2000/svg"
 width="626.000000pt" height="626.000000pt" viewBox="0 0 626.000000 626.000000"
 preserveAspectRatio="xMidYMid meet">

<g transform="translate(0.000000,626.000000) scale(0.100000,-0.100000)"
fill="#000000" stroke="none">
<path d="M3330 5685 c-145 -18 -289 -49 -424 -90 -558 -169 -905 -464 -981
-833 -17 -79 -22 -240 -10 -308 29 -167 118 -335 248 -466 67 -69 182 -158
260 -203 34 -19 46 -32 43 -44 -19 -59 -75 -533 -101 -853 -4 -43 -9 -78 -11
-78 -14 0 -239 178 -368 291 -4 4 1 35 13 68 12 34 21 74 21 90 0 31 -22 61
-44 61 -25 0 -63 -39 -92 -95 -16 -30 -33 -54 -39 -52 -5 2 -19 32 -30 67 -36
111 -99 152 -144 94 -12 -15 -21 -37 -21 -50 0 -21 -5 -24 -33 -24 -53 0 -72
-29 -70 -106 1 -46 -2 -64 -12 -64 -29 0 -37 -26 -25 -92 17 -97 63 -187 138
-269 l24 -27 -22 -15 c-20 -14 -20 -15 32 -62 29 -26 82 -67 117 -91 l64 -43
-44 -13 c-26 -7 -94 -13 -164 -13 -111 0 -124 2 -177 28 -82 40 -143 112 -169
199 -19 60 -21 85 -15 181 3 62 7 123 8 137 2 16 -3 25 -14 28 -33 7 -71 -171
-72 -338 -1 -241 90 -420 273 -539 73 -47 137 -73 271 -109 87 -23 112 -25
302 -26 115 -1 208 -1 208 -1 0 0 -9 -63 -20 -140 -31 -225 -50 -436 -57 -640
l-6 -190 52 -28 c29 -16 87 -41 129 -57 72 -26 78 -30 86 -64 5 -20 7 -38 4
-41 -3 -3 -39 0 -81 7 -91 14 -182 1 -257 -37 -60 -30 -147 -115 -129 -126 7
-4 75 -7 153 -8 78 0 221 -4 319 -7 109 -4 177 -3 177 3 0 5 -16 55 -35 112
-34 101 -34 103 -12 97 95 -23 196 -31 417 -31 135 0 257 4 273 8 l27 7 0
-115 0 -115 168 1 c92 1 240 5 330 8 l162 6 -46 49 c-107 111 -275 144 -460
90 -18 -5 -23 0 -32 37 -6 24 -9 45 -7 47 2 2 60 15 130 28 189 37 171 18 164
175 -4 74 -10 306 -15 516 l-7 382 79 -26 c70 -24 95 -27 219 -27 118 -1 153
3 220 22 230 67 441 216 522 368 50 94 67 166 66 279 -2 131 -28 230 -98 370
-65 132 -84 158 -104 145 -13 -7 -11 -16 11 -57 141 -260 11 -541 -302 -658
-65 -25 -90 -28 -185 -29 -118 0 -176 15 -251 66 -40 27 -42 34 -11 43 28 9
75 52 93 87 19 36 18 108 -2 137 -21 30 -73 51 -125 51 l-42 0 6 138 c3 75 13
173 21 217 19 108 55 257 64 273 6 9 31 3 104 -28 217 -91 431 -121 608 -86
323 63 576 356 597 692 9 146 -20 237 -106 329 -57 61 -166 196 -338 420 -386
502 -605 739 -808 870 -129 84 -174 97 -350 101 -89 2 -193 -2 -255 -11z m415
-40 c124 -33 264 -134 455 -331 156 -160 281 -311 549 -658 115 -149 242 -307
282 -350 104 -115 114 -142 113 -301 0 -121 -3 -136 -33 -216 -86 -232 -270
-401 -497 -459 -87 -23 -243 -27 -340 -9 -140 25 -374 113 -374 141 0 24 86
241 131 331 l44 87 42 -30 c46 -34 138 -74 193 -84 26 -4 12 6 -55 42 -111 58
-225 166 -274 260 -18 35 -31 65 -29 66 1 2 46 9 98 15 52 7 120 18 150 26
l55 13 -70 -6 c-133 -13 -405 -7 -497 11 -306 60 -576 219 -792 467 -59 67
-51 50 22 -47 141 -189 375 -350 608 -418 108 -32 255 -55 347 -55 60 0 67 -2
67 -20 0 -30 30 -99 68 -158 l35 -53 -56 -117 c-62 -131 -114 -267 -148 -387
-12 -44 -24 -82 -25 -83 -1 -2 -33 21 -71 50 -262 210 -524 308 -823 308 -153
0 -310 -28 -424 -75 -16 -7 -18 -4 -13 21 4 16 18 97 33 179 28 159 75 356
119 493 23 72 29 82 49 82 46 0 153 40 215 80 35 23 61 43 59 46 -3 2 -34 -9
-69 -25 -35 -17 -93 -38 -129 -47 -85 -23 -253 -23 -339 0 -35 9 -66 14 -69
11 -10 -9 95 -47 158 -57 122 -19 113 -2 74 -124 -33 -103 -104 -403 -104
-437 0 -10 -6 -17 -14 -17 -25 0 -168 102 -244 174 -191 181 -276 366 -275
596 0 238 78 418 253 590 233 228 669 416 1100 474 148 20 370 20 445 1z
m-628 -2019 c219 -39 456 -156 642 -317 l42 -37 -21 -113 c-12 -63 -24 -179
-27 -259 l-6 -145 -33 -38 c-19 -20 -34 -42 -34 -47 0 -19 -19 -10 -93 43
-111 80 -236 127 -338 127 -38 0 -50 4 -62 24 -28 42 -112 76 -186 76 -89 0
-135 -15 -181 -57 -38 -34 -40 -34 -77 -22 -62 21 -168 15 -257 -15 -43 -15
-81 -25 -83 -22 -10 10 60 706 73 728 7 11 129 49 222 68 108 23 305 26 419 6z
m-1369 -331 c11 -14 25 -47 32 -75 l12 -49 -45 -58 c-73 -95 -134 -200 -70
-121 14 18 52 59 82 91 52 54 59 57 91 52 34 -5 35 -4 58 49 13 30 34 64 48
77 l24 22 0 -25 c0 -37 -24 -98 -81 -213 -50 -98 -169 -288 -190 -301 -27 -16
-119 115 -149 214 -11 35 -20 70 -20 78 0 23 26 16 40 -11 13 -25 40 -35 40
-15 0 6 -10 43 -22 84 -24 82 -20 126 12 126 15 0 29 -18 52 -65 18 -36 38
-65 45 -65 16 0 16 8 -1 56 -21 62 -28 118 -17 147 13 34 34 34 59 2z m324
-317 c62 -51 146 -118 187 -147 l74 -55 -24 -15 c-13 -9 -72 -52 -132 -97 -59
-44 -142 -98 -185 -119 l-77 -38 -39 23 c-22 13 -62 39 -89 58 l-48 35 54 56
c30 31 71 81 90 112 38 60 91 178 83 186 -2 2 -7 -6 -11 -19 -13 -44 -85 -156
-136 -212 -110 -121 -161 -127 -66 -8 61 76 133 190 178 285 13 26 24 47 26
47 1 0 53 -42 115 -92z m1015 -93 c75 -31 93 -73 51 -113 -34 -31 -72 -42
-147 -42 -89 0 -154 31 -159 76 -3 34 24 65 73 82 45 16 141 14 182 -3z m817
-176 c56 -44 20 -153 -60 -179 -36 -12 -37 -12 -89 40 -52 51 -53 54 -40 79
15 29 52 66 75 74 35 13 88 6 114 -14z m-820 -114 c137 -236 342 -451 525
-551 l51 -27 0 -151 c0 -129 13 -590 22 -806 l3 -65 -69 -17 c-227 -57 -645
-85 -864 -59 -106 13 -265 49 -352 79 l-55 19 2 109 c3 156 23 434 38 537 16
106 28 126 160 257 l95 95 0 -45 c0 -97 52 -190 98 -176 18 6 22 15 22 50 l0
43 49 -49 c42 -42 54 -49 83 -46 23 2 36 10 43 26 5 12 14 22 20 22 5 0 62
-13 125 -29 126 -32 289 -61 329 -60 14 0 -15 9 -65 19 -107 21 -320 83 -372
108 -30 14 -38 25 -49 67 -19 74 -17 79 15 57 57 -40 102 -32 102 18 0 16 -25
79 -56 139 l-56 110 23 30 22 30 51 -30 c71 -42 366 -186 396 -194 14 -3 -29
23 -95 57 -111 59 -192 106 -288 169 -29 18 -36 29 -32 44 17 58 17 85 3 85
-46 0 -222 -149 -286 -243 -18 -25 -110 -124 -205 -219 -168 -167 -175 -175
-190 -233 -29 -108 -38 -206 -44 -457 -3 -137 -9 -248 -14 -248 -36 0 -39 11
-39 129 0 184 26 476 66 743 l16 107 71 21 c227 69 430 238 532 442 24 48 47
108 50 133 7 42 9 45 39 45 28 -1 35 -8 80 -85z m-84 -168 c0 -15 -45 -86 -82
-130 l-24 -29 47 -96 c54 -109 67 -152 49 -152 -24 0 -81 54 -126 121 -26 38
-49 67 -51 66 -1 -2 20 -79 47 -171 28 -93 50 -179 50 -192 0 -61 -99 -3 -145
85 l-24 46 -1 -77 c0 -60 -3 -78 -14 -78 -25 0 -50 70 -49 141 1 153 96 322
243 432 65 49 80 56 80 34z m-340 -343 c0 -4 -51 -59 -113 -123 -135 -139
-166 -178 -178 -228 -14 -60 -38 -323 -45 -503 -4 -91 -10 -172 -15 -180 -21
-37 1 488 25 630 8 43 22 94 31 114 10 21 77 95 148 167 119 117 147 141 147
123z"/>
<path d="M2729 3495 c-50 -18 -117 -53 -124 -64 -3 -6 15 -1 41 10 27 12 92
26 157 33 101 11 109 14 84 24 -37 15 -112 14 -158 -3z"/>
<path d="M3191 3449 c-13 -5 -22 -11 -19 -14 2 -2 49 -9 105 -14 63 -6 119
-17 149 -30 61 -27 67 -21 12 12 -89 51 -188 70 -247 46z"/>
<path d="M2695 3136 c-33 -33 -35 -101 -4 -140 25 -32 42 -33 69 -4 14 15 20
35 20 66 0 50 -12 77 -40 92 -16 9 -25 6 -45 -14z"/>
<path d="M3330 3078 c-15 -16 -20 -35 -20 -73 0 -53 24 -95 55 -95 26 0 55 50
55 95 0 45 -29 95 -55 95 -8 0 -23 -10 -35 -22z"/>
<path d="M3791 2677 c-13 -6 -31 -22 -39 -35 l-15 -23 48 25 c26 14 59 26 72
26 14 0 21 4 18 10 -9 14 -55 12 -84 -3z"/>
<path d="M3460 2090 c8 -5 20 -10 25 -10 6 0 3 5 -5 10 -8 5 -19 10 -25 10 -5
0 -3 -5 5 -10z"/>
<path d="M2500 1820 c-23 -23 -26 -49 -7 -74 16 -21 60 -24 82 -6 23 19 19 66
-7 84 -30 21 -44 20 -68 -4z m55 -41 c0 -7 -8 -15 -17 -17 -18 -3 -25 18 -11
32 10 10 28 1 28 -15z"/>
<path d="M2922 1785 c-30 -22 -30 -69 2 -90 48 -32 104 22 76 74 -6 12 -15 21
-20 21 -4 0 -14 2 -22 5 -7 3 -23 -2 -36 -10z m44 -36 c10 -17 -13 -36 -27
-22 -12 12 -4 33 11 33 5 0 12 -5 16 -11z"/>
<path d="M2422 1434 c-24 -17 -30 -62 -10 -82 17 -17 64 -15 82 4 22 21 20 50
-4 74 -24 24 -38 25 -68 4z m48 -38 c0 -20 -19 -31 -32 -18 -6 6 -7 15 -4 21
10 16 36 13 36 -3z"/>
<path d="M2887 1402 c-20 -22 -22 -63 -5 -80 30 -30 98 -1 98 41 0 23 -35 57
-58 57 -11 0 -26 -8 -35 -18z m53 -36 c0 -8 -5 -18 -11 -22 -14 -8 -33 11 -25
25 10 16 36 13 36 -3z"/>
</g>
</svg>
